<svg width="54" height="58" viewBox="0 0 54 58" fill="none" xmlns="http://www.w3.org/2000/svg">
<g clip-path="url(#clip0_58146_2949)">
<path d="M20.0011 42.7204C20.2789 42.6597 20.457 42.6466 20.6146 42.5821C26.3564 40.2457 31.5063 37.0233 35.4798 32.069C37.3359 29.7546 38.8007 27.1842 39.5944 24.2237C39.8282 23.3514 39.9945 22.4335 40.03 21.5205C40.0957 19.8129 40.0896 18.0944 40.024 16.3798C39.9783 15.178 39.5798 14.0465 38.9535 12.9828C37.903 11.197 36.559 9.68013 34.945 8.47111C32.5447 6.67238 29.9788 6.44823 27.3557 7.50851C26.8647 7.70705 26.3782 7.91917 25.8754 8.08618C25.6698 8.15473 25.4282 8.11874 25.1092 8.13518C25.1791 7.86981 25.1765 7.71914 25.246 7.6388C26.0446 6.72761 26.9585 5.9863 28.1021 5.56614C30.0539 4.84881 32.0096 5.06596 33.9395 5.89953C36.9662 7.20822 39.4129 9.32098 41.3056 12.1302C42.0206 13.1919 42.4951 14.3913 42.6965 15.6463C43.1024 18.1748 43.341 20.7136 43.1285 23.25C42.8588 26.4714 41.6634 29.305 40.0292 31.9225C37.5709 35.8615 34.3572 39.0037 30.5747 41.5493C26.9169 44.011 22.9606 45.8268 18.8082 47.2485C18.6101 47.316 18.423 47.4138 18.1162 47.5472C18.436 47.7891 18.656 47.9714 18.8907 48.1287C20.1693 48.9873 21.4541 49.8351 22.7313 50.6968C23.0566 50.9163 23.3829 51.1451 23.6702 51.4151C24.2978 52.0046 24.4394 52.8643 24.0453 53.4775C23.6256 54.1308 22.7736 54.3276 22.0323 53.8476C21.017 53.1893 20.0289 52.4788 19.051 51.7575C17.6762 50.7427 16.313 49.7112 14.966 48.6572C14.4774 48.2748 14.0449 47.8094 13.5952 47.3725C13.2144 47.0024 13.1719 46.5489 13.3223 46.0882C13.5654 45.3474 14 44.751 14.752 44.5647C15.425 44.3974 15.8082 43.9884 16.0981 43.369C16.5726 42.353 17.1021 41.3667 17.6151 40.3723C17.7613 40.0883 17.9036 39.7956 18.0937 39.5463C18.5312 38.9726 19.25 38.8311 19.8744 39.1609C20.5042 39.4926 20.8416 40.1823 20.6657 40.9252C20.57 41.3295 20.3508 41.6953 20.1975 42.0825C20.1318 42.2481 20.0904 42.4278 20.0015 42.7202L20.0011 42.7204Z" fill="white"/>
</g>
<defs>
<clipPath id="clip0_58146_2949">
<rect width="54" height="58" fill="white"/>
</clipPath>
</defs>
</svg>
