<svg width="155" height="24" viewBox="0 0 155 24" fill="none" xmlns="http://www.w3.org/2000/svg">
<path d="M14.0605 14.0938C14.1267 14.0717 14.2002 14.092 14.2461 14.1445C15.687 15.7984 17.1385 17.4642 18.5957 19.1367C18.6633 19.2144 18.6481 19.3338 18.5635 19.3926C18.2975 19.577 18.0383 19.7563 17.7793 19.9355C16.1099 21.0907 12.7977 23.3661 12.1846 23.7871C12.1252 23.8277 12.0473 23.8271 11.9883 23.7861C11.8437 23.6849 11.5735 23.4958 11.416 23.3877C9.99819 22.4146 7.29636 20.5566 6.62206 20.0928C6.53832 20.035 6.52084 19.92 6.58593 19.8418C7.1817 19.126 9.85631 15.9137 11.3232 14.1514C11.3678 14.098 11.4393 14.0776 11.5058 14.0977C11.7231 14.1634 11.9311 14.2252 12.1367 14.2939C12.1644 14.3032 12.1887 14.3625 12.1924 14.4004C12.2389 14.9004 12.2811 15.4011 12.3242 15.9014C12.4121 16.9227 12.4999 17.9445 12.5879 18.9658C12.6317 19.4744 12.6763 19.9836 12.7207 20.4922C12.7232 20.5208 12.7265 20.5498 12.7295 20.5791C12.733 20.6136 12.7631 20.6405 12.7978 20.6406C12.8331 20.6406 12.8613 20.6132 12.8642 20.5781C13.0364 18.5244 13.2077 16.4744 13.3789 14.4326C13.3848 14.364 13.4318 14.3051 13.4971 14.2832C13.6839 14.2204 13.8686 14.1582 14.0605 14.0938ZM22.4551 8.32617C22.546 8.29145 22.6473 8.33696 22.6797 8.42871C23.4936 10.7568 24.9644 14.9573 25.2344 15.7285C25.2599 15.8015 25.2341 15.8822 25.1709 15.9268L19.7685 19.71C19.6901 19.7647 19.5839 19.7475 19.5293 19.6689C19.0124 18.9222 16.563 15.3836 15.2226 13.4473C15.1821 13.3885 15.1827 13.3121 15.2226 13.2529C15.3394 13.0801 15.4528 12.9107 15.5723 12.7461C15.5917 12.7198 15.6584 12.7092 15.6973 12.7178C16.4594 12.8883 17.221 13.0622 17.9824 13.2363C19.3609 13.5515 20.7396 13.8674 22.1182 14.1826H22.1191C22.1499 14.1894 22.179 14.1722 22.1894 14.1426C22.2009 14.1091 22.1861 14.068 22.1533 14.0547C21.9055 13.9553 21.662 13.8581 21.4189 13.7607C19.711 13.0768 18.0027 12.3925 16.2949 11.708C16.1891 11.6656 16.0453 11.6442 15.9922 11.5645C15.9432 11.4902 15.993 11.3515 15.9951 11.2412C15.997 11.1349 15.9965 11.0277 15.9961 10.916C15.996 10.8444 16.0405 10.7795 16.1074 10.7539C18.2082 9.95022 20.3243 9.14134 22.4551 8.32617ZM2.21386 7.99414C3.09382 8.32723 7.22831 9.89256 9.48241 10.751C9.5494 10.7765 9.59204 10.8405 9.59179 10.9121C9.59067 11.1192 9.58808 11.3165 9.59569 11.5127C9.59854 11.5892 9.55816 11.6011 9.50878 11.6211C8.82399 11.8995 8.13956 12.1803 7.45409 12.457C6.11726 12.9967 4.77863 13.5345 3.4414 14.0732C3.43992 14.0738 3.438 14.0746 3.43651 14.0752C3.40408 14.0892 3.38929 14.1276 3.40038 14.1611C3.4009 14.1627 3.40178 14.1645 3.40233 14.166C3.41023 14.1895 3.43191 14.2136 3.45604 14.208C5.41411 13.7552 7.37213 13.3019 9.33007 12.8486C9.51825 12.8051 9.70645 12.7581 9.8955 12.7188C9.92697 12.7124 9.98057 12.7245 9.99706 12.7471C10.1161 12.9128 10.2307 13.0821 10.3486 13.2549C10.3882 13.3129 10.3891 13.3896 10.3506 13.4482C9.16326 15.2468 7.96841 17.056 6.76952 18.8721C6.71605 18.9531 6.6081 18.9752 6.52831 18.9199C4.46608 17.4916 0.752408 14.9124 0.0742085 14.4414C0.0102783 14.3969 -0.0159157 14.3158 0.00975536 14.2422C0.0345658 14.1711 0.0639062 14.0857 0.0810444 14.0332C0.656317 12.2713 1.73559 8.90221 1.9912 8.10352C2.0216 8.00949 2.12137 7.9592 2.21386 7.99414ZM46.3389 8.70117C46.8579 8.70117 47.3417 8.78481 47.7891 8.95215C48.2396 9.11604 48.6323 9.36328 48.9668 9.69434C49.3048 10.0256 49.568 10.4424 49.7558 10.9443C49.9437 11.4429 50.0371 12.027 50.0371 12.6963V13.2959H44.6797V13.3008C44.6797 13.6901 44.7511 14.0271 44.8945 14.3105C45.0414 14.5938 45.2484 14.8122 45.5146 14.9658C45.7809 15.1194 46.0966 15.1963 46.4619 15.1963C46.7044 15.1963 46.9264 15.1621 47.1279 15.0938C47.3294 15.0254 47.5021 14.9227 47.6455 14.7861C47.7888 14.6496 47.8976 14.4821 47.9726 14.2842L49.9912 14.418C49.8887 14.9028 49.6788 15.3266 49.3613 15.6885C49.0472 16.0469 48.6409 16.3269 48.1426 16.5283C47.6474 16.7264 47.0746 16.8252 46.4258 16.8252C45.6166 16.8252 44.9198 16.6617 44.3359 16.334C43.7554 16.0027 43.3083 15.5342 42.9941 14.9297C42.68 14.3219 42.5225 13.6032 42.5225 12.7734C42.5225 11.9641 42.68 11.2538 42.9941 10.6426C43.3083 10.0314 43.7501 9.55439 44.3203 9.21289C44.894 8.87141 45.5671 8.70119 46.3389 8.70117ZM58.0254 8.70117C58.5443 8.70119 59.0273 8.78488 59.4746 8.95215C59.9254 9.11606 60.3186 9.36311 60.6533 9.69434C60.9914 10.0256 61.2545 10.4424 61.4424 10.9443C61.6302 11.4429 61.7236 12.027 61.7236 12.6963V13.2959H56.3652V13.3008C56.3652 13.6901 56.4376 14.0271 56.581 14.3105C56.7278 14.5937 56.9341 14.8122 57.2002 14.9658C57.4666 15.1195 57.783 15.1963 58.1484 15.1963C58.3908 15.1963 58.613 15.162 58.8144 15.0938C59.0158 15.0255 59.1877 14.9226 59.331 14.7861C59.4745 14.6495 59.584 14.4823 59.6592 14.2842L61.6777 14.418C61.5753 14.9028 61.3654 15.3266 61.0478 15.6885C60.7337 16.047 60.3267 16.3269 59.8281 16.5283C59.333 16.7263 58.761 16.8252 58.1123 16.8252C57.3031 16.8252 56.6064 16.6617 56.0225 16.334C55.4419 16.0027 54.9948 15.5341 54.6807 14.9297C54.3665 14.3218 54.209 13.6032 54.209 12.7734C54.209 11.9641 54.3665 11.2539 54.6807 10.6426C54.9948 10.0313 55.4365 9.5544 56.0068 9.21289C56.5806 8.87139 57.2536 8.70117 58.0254 8.70117ZM65.9111 8.70117C66.9049 8.70117 67.6875 8.911 68.2578 9.33105C68.8313 9.75107 69.1661 10.3231 69.2617 11.0469L67.2637 11.1699C67.2295 10.9992 67.1557 10.8456 67.043 10.709C66.9303 10.569 66.782 10.4579 66.5976 10.376C66.4167 10.2906 66.1999 10.2481 65.9473 10.248C65.6093 10.248 65.324 10.3195 65.0918 10.4629C64.8596 10.6029 64.7432 10.7908 64.7432 11.0264C64.7432 11.2142 64.8185 11.3732 64.9687 11.5029C65.119 11.6327 65.3768 11.7369 65.7422 11.8154L67.166 12.1025C67.9309 12.2596 68.5013 12.5121 68.8769 12.8604C69.2526 13.2087 69.4404 13.6665 69.4404 14.2334C69.4404 14.749 69.2883 15.2015 68.9844 15.5908C68.6839 15.98 68.2709 16.2844 67.7451 16.5029C67.2226 16.718 66.6195 16.8252 65.9365 16.8252C64.8951 16.8252 64.0653 16.6084 63.4473 16.1748C62.8325 15.7377 62.4721 15.1429 62.3662 14.3916L64.5127 14.2793C64.5776 14.5969 64.7351 14.8395 64.9844 15.0068C65.2336 15.1706 65.5532 15.2529 65.9424 15.2529C66.3247 15.2529 66.6321 15.179 66.8642 15.0322C67.0997 14.882 67.2192 14.6887 67.2226 14.4531C67.2191 14.2552 67.1355 14.0931 66.9717 13.9668C66.8078 13.8371 66.5551 13.7382 66.2139 13.6699L64.8506 13.3984C64.0825 13.2448 63.5104 12.9785 63.1348 12.5996C62.7625 12.2205 62.5762 11.7368 62.5762 11.1494C62.5762 10.644 62.7131 10.2082 62.9863 9.84277C63.2629 9.47752 63.651 9.19606 64.1494 8.99805C64.6513 8.80006 65.2385 8.70118 65.9111 8.70117ZM129.982 8.70117C130.778 8.70117 131.465 8.87145 132.042 9.21289C132.622 9.55088 133.07 10.0257 133.384 10.6367C133.698 11.2446 133.855 11.9558 133.855 12.7686C133.855 13.5744 133.698 14.2833 133.384 14.8945C133.07 15.5021 132.622 15.977 132.042 16.3184C131.465 16.6564 130.778 16.8252 129.982 16.8252C129.187 16.8251 128.498 16.6564 127.918 16.3184C127.341 15.9769 126.895 15.5022 126.581 14.8945C126.267 14.2833 126.11 13.5744 126.11 12.7686C126.11 11.9558 126.267 11.2446 126.581 10.6367C126.895 10.0256 127.341 9.55093 127.918 9.21289C128.498 8.87144 129.187 8.70123 129.982 8.70117ZM151.471 8.70117C152.464 8.70121 153.246 8.91107 153.816 9.33105C154.39 9.75107 154.725 10.323 154.82 11.0469L152.823 11.1699C152.789 10.9992 152.715 10.8456 152.603 10.709C152.49 10.569 152.341 10.4579 152.157 10.376C151.976 10.2906 151.759 10.248 151.506 10.248C151.168 10.2481 150.883 10.3195 150.65 10.4629C150.418 10.6029 150.303 10.7909 150.303 11.0264C150.303 11.2142 150.378 11.3732 150.528 11.5029C150.679 11.6326 150.937 11.7369 151.302 11.8154L152.726 12.1025C153.49 12.2596 154.061 12.512 154.437 12.8604C154.812 13.2087 155 13.6665 155 14.2334C155 14.749 154.848 15.2015 154.544 15.5908C154.243 15.9801 153.83 16.2844 153.305 16.5029C152.782 16.7181 152.179 16.8252 151.496 16.8252C150.455 16.8252 149.625 16.6084 149.007 16.1748C148.392 15.7377 148.032 15.1429 147.926 14.3916L150.072 14.2793C150.137 14.5968 150.294 14.8395 150.543 15.0068C150.792 15.1707 151.112 15.2529 151.501 15.2529C151.883 15.2529 152.191 15.179 152.423 15.0322C152.658 14.882 152.779 14.6888 152.782 14.4531C152.779 14.2553 152.695 14.093 152.531 13.9668C152.367 13.837 152.114 13.7382 151.772 13.6699L150.41 13.3984C149.642 13.2448 149.07 12.9785 148.694 12.5996C148.322 12.2205 148.136 11.7368 148.136 11.1494C148.136 10.644 148.273 10.2082 148.546 9.84277C148.822 9.47766 149.21 9.19603 149.708 8.99805C150.21 8.79997 150.798 8.70117 151.471 8.70117ZM82.3877 8.70117C82.8246 8.70117 83.2431 8.75212 83.6426 8.85449C84.0455 8.95694 84.4031 9.11591 84.7139 9.33105C85.028 9.54618 85.2751 9.82311 85.456 10.1611C85.637 10.4957 85.7275 10.8966 85.7275 11.3643V16.6719H83.6582V15.5801H83.5967C83.4703 15.826 83.3016 16.0436 83.0898 16.2314C82.8781 16.4158 82.6232 16.5602 82.3262 16.666C82.0291 16.7684 81.6861 16.8203 81.2969 16.8203C80.7949 16.8203 80.3478 16.7327 79.9551 16.5586C79.5624 16.381 79.2512 16.1202 79.0225 15.7754C78.7971 15.4271 78.6846 14.9927 78.6846 14.4736C78.6846 14.0369 78.7645 13.67 78.9248 13.373C79.0853 13.0759 79.3044 12.8363 79.581 12.6553C79.8576 12.4744 80.1718 12.3383 80.5234 12.2461C80.8785 12.1539 81.2505 12.0884 81.6396 12.0508C82.0973 12.003 82.467 11.9589 82.7471 11.918C83.0268 11.8736 83.2301 11.809 83.3564 11.7236C83.4828 11.6383 83.5459 11.5111 83.5459 11.3438V11.3135C83.5459 10.9891 83.4431 10.7381 83.2383 10.5605C83.0368 10.383 82.7501 10.294 82.3779 10.2939C81.9852 10.2939 81.6726 10.3815 81.4404 10.5557C81.2084 10.7263 81.0546 10.9409 80.9795 11.2002L78.9609 11.0371C79.0634 10.559 79.2649 10.1452 79.5654 9.79688C79.8659 9.44517 80.2539 9.17511 80.7285 8.9873C81.2065 8.79618 81.7596 8.7012 82.3877 8.70117ZM37.1689 6.03711C37.7766 6.03711 38.3404 6.12231 38.8594 6.29297C39.3819 6.46372 39.8451 6.71317 40.248 7.04102C40.6509 7.36539 40.9787 7.76321 41.2314 8.23438C41.4876 8.70565 41.6519 9.24564 41.7236 9.85352H39.4795C39.4385 9.56328 39.3548 9.30545 39.2285 9.08008C39.1022 8.85136 38.9401 8.65656 38.7422 8.49609C38.5441 8.33561 38.3152 8.21233 38.0557 8.12695C37.7996 8.04159 37.5212 7.99904 37.2207 7.99902C36.6778 7.99902 36.2047 8.13367 35.8017 8.40332C35.3989 8.66963 35.0862 9.05921 34.8642 9.57129C34.6423 10.0801 34.5313 10.6985 34.5312 11.4258C34.5312 12.1737 34.6423 12.8027 34.8642 13.3115C35.0896 13.8202 35.4037 14.2044 35.8066 14.4639C36.2096 14.7234 36.6758 14.8535 37.2051 14.8535C37.5022 14.8535 37.7775 14.8139 38.0303 14.7354C38.2863 14.6568 38.5129 14.5418 38.7109 14.3916C38.9089 14.238 39.0734 14.0525 39.2031 13.834C39.3363 13.6155 39.4282 13.3659 39.4795 13.0859L41.7236 13.0957C41.6656 13.5772 41.5203 14.0419 41.2881 14.4893C41.0593 14.9332 40.7497 15.3309 40.3603 15.6826C39.9744 16.0309 39.5137 16.3078 38.9775 16.5127C38.4448 16.7142 37.8417 16.8154 37.1689 16.8154C36.2334 16.8154 35.3967 16.6031 34.6592 16.1797C33.925 15.7563 33.3448 15.1432 32.918 14.3408C32.4945 13.5383 32.2822 12.5664 32.2822 11.4258C32.2822 10.2819 32.4975 9.30834 32.9277 8.50586C33.358 7.70342 33.9421 7.09189 34.6797 6.67188C35.4172 6.24852 36.2471 6.03716 37.1689 6.03711ZM73.0869 8.80273H74.5674V10.4424H73.0869V14.2539C73.0869 14.4551 73.1173 14.612 73.1787 14.7246C73.2401 14.8338 73.3254 14.9107 73.4346 14.9551C73.5473 14.9995 73.6774 15.0215 73.8242 15.0215C73.9266 15.0215 74.0294 15.0132 74.1318 14.9961C74.2341 14.9756 74.3126 14.9604 74.3672 14.9502L74.71 16.5742C74.6007 16.6083 74.4468 16.6471 74.249 16.6914C74.051 16.7392 73.8106 16.769 73.5273 16.7793C73.0014 16.7998 72.5397 16.7298 72.1435 16.5693C71.7509 16.4088 71.4451 16.1593 71.2266 15.8213C71.008 15.4832 70.9009 15.0557 70.9043 14.54V10.4424H69.8281V8.80273H70.9043V6.91797H73.0869V8.80273ZM112.318 8.80273H113.799V10.4424H112.318V14.2539C112.318 14.4552 112.35 14.612 112.411 14.7246C112.473 14.8339 112.558 14.9107 112.667 14.9551C112.78 14.9994 112.909 15.0214 113.056 15.0215C113.158 15.0215 113.261 15.0131 113.363 14.9961C113.466 14.9756 113.545 14.9604 113.6 14.9502L113.942 16.5742C113.833 16.6084 113.679 16.647 113.481 16.6914C113.283 16.7392 113.042 16.7691 112.759 16.7793C112.233 16.7998 111.772 16.7298 111.376 16.5693C110.983 16.4089 110.678 16.1593 110.459 15.8213C110.24 15.4832 110.133 15.0557 110.137 14.54V10.4424H109.061V8.80273H110.137V6.91797H112.318V8.80273ZM53.2109 16.6719H51.0293V6.18066H53.2109V16.6719ZM89.1709 16.6719H86.9883V6.18066H89.1709V16.6719ZM102.96 16.6719H100.584L99.8076 14.2793H96.0185L95.2402 16.6719H92.8642L96.4853 6.18066H99.3437L102.96 16.6719ZM107.838 8.69043C107.947 8.69044 108.065 8.69729 108.191 8.71094C108.318 8.7246 108.429 8.74369 108.524 8.76758V10.7041C108.422 10.6734 108.28 10.646 108.099 10.6221C107.918 10.5982 107.752 10.5859 107.602 10.5859C107.281 10.586 106.994 10.6559 106.741 10.7959C106.492 10.9325 106.294 11.1243 106.147 11.3701C106.004 11.6159 105.932 11.8989 105.932 12.2197V16.6719H103.75V8.80371H105.865V10.1768H105.947C106.091 9.68841 106.332 9.31863 106.67 9.06934C107.008 8.8168 107.397 8.69043 107.838 8.69043ZM117.626 14.0898H117.697L118.968 8.80371H121.135L122.426 14.0596H122.492L123.69 8.80371H125.894L123.757 16.6719H121.447L120.095 11.7236H119.997L118.645 16.6719H116.34L114.198 8.80371H116.406L117.626 14.0898ZM138.93 8.69043C139.039 8.69043 139.157 8.69729 139.283 8.71094C139.409 8.72459 139.521 8.74369 139.616 8.76758V10.7041C139.514 10.6734 139.372 10.646 139.191 10.6221C139.01 10.5982 138.845 10.5859 138.694 10.5859C138.373 10.5859 138.087 10.656 137.834 10.7959C137.585 10.9325 137.386 11.1242 137.239 11.3701C137.096 11.6158 137.024 11.899 137.024 12.2197V16.6719H134.842V8.80371H136.958V10.1768H137.04C137.183 9.68841 137.424 9.31863 137.762 9.06934C138.1 8.8167 138.489 8.69047 138.93 8.69043ZM142.494 11.79H142.611L145.132 8.80371H147.637L144.718 12.2109L147.785 16.6719H145.229L143.085 13.4971L142.494 14.1729V16.6719H140.312V6.18066H142.494V11.79ZM77.7383 16.6709H75.5566V8.80273H77.7383V16.6709ZM83.5615 13.0244C83.4932 13.0688 83.3988 13.1099 83.2793 13.1475C83.1632 13.1816 83.0316 13.2134 82.8848 13.2441C82.7379 13.2715 82.5912 13.2974 82.4443 13.3213C82.2975 13.3418 82.1644 13.3609 82.0449 13.3779C81.789 13.4155 81.5652 13.4748 81.374 13.5566C81.1828 13.6386 81.0336 13.7497 80.9277 13.8896C80.8219 14.0263 80.7695 14.1974 80.7695 14.4023C80.7695 14.6994 80.8767 14.9269 81.0918 15.084C81.3103 15.2376 81.5872 15.3145 81.9219 15.3145C82.2429 15.3145 82.5266 15.2514 82.7725 15.125C83.0181 14.9953 83.2106 14.8208 83.3506 14.6025C83.4906 14.384 83.5615 14.136 83.5615 13.8594V13.0244ZM129.993 10.3652C129.628 10.3652 129.321 10.4696 129.071 10.6777C128.825 10.886 128.639 11.1698 128.513 11.5283C128.39 11.8869 128.328 12.2953 128.328 12.7529C128.328 13.2105 128.39 13.619 128.513 13.9775C128.639 14.3359 128.825 14.6189 129.071 14.8271C129.321 15.032 129.628 15.1348 129.993 15.1348C130.355 15.1347 130.657 15.032 130.899 14.8271C131.142 14.6189 131.325 14.336 131.448 13.9775C131.575 13.619 131.638 13.2105 131.638 12.7529C131.638 12.2953 131.575 11.8869 131.448 11.5283C131.325 11.1698 131.142 10.886 130.899 10.6777C130.657 10.4697 130.355 10.3653 129.993 10.3652ZM96.582 12.5479H99.2451L97.956 8.57812H97.874L96.582 12.5479ZM46.375 10.3301C46.0438 10.3301 45.7502 10.4069 45.4941 10.5605C45.2414 10.7108 45.0428 10.9138 44.8994 11.1699C44.7671 11.403 44.6977 11.6609 44.6846 11.9434H47.9834C47.9834 11.6292 47.9149 11.3508 47.7783 11.1084C47.6417 10.866 47.4523 10.6766 47.21 10.54C46.9709 10.4 46.6925 10.3301 46.375 10.3301ZM58.0615 10.3301C57.7303 10.3301 57.4358 10.4069 57.1797 10.5605C56.9271 10.7108 56.7293 10.9139 56.5859 11.1699C56.4536 11.403 56.3833 11.6609 56.3701 11.9434H59.6699C59.6699 11.6292 59.6014 11.3508 59.4648 11.1084C59.3283 10.8661 59.1388 10.6766 58.8965 10.54C58.6575 10.4001 58.3789 10.3301 58.0615 10.3301ZM21.0771 0.957031C21.1513 0.956993 21.2174 1.00498 21.2412 1.0752C21.9349 3.14453 22.6396 5.32887 23.3359 7.39941C23.3675 7.4936 23.3135 7.59459 23.2178 7.62109C22.9957 7.68246 22.7743 7.74468 22.5527 7.80371C20.6115 8.32076 18.6699 8.83685 16.7285 9.35352C16.3831 9.44544 16.0367 9.53611 15.6924 9.63184C15.6187 9.65231 15.5797 9.64347 15.5342 9.57324C15.4353 9.4206 15.3258 9.27414 15.2109 9.11621C15.1701 9.05988 15.1676 8.98408 15.2041 8.9248C15.7027 8.11389 16.2111 7.28596 16.7236 6.45117C17.3572 5.41994 17.9876 4.39638 18.6221 3.36523C18.6394 3.33669 18.6352 3.30133 18.6094 3.28027C18.5813 3.25795 18.5372 3.2591 18.5137 3.28613C18.3528 3.47365 18.1956 3.65761 18.0381 3.84082C16.7765 5.30843 15.5138 6.77621 14.2549 8.24609C14.1887 8.32326 14.1434 8.32708 14.0508 8.29004C13.873 8.21897 13.6884 8.16395 13.499 8.10352C13.4315 8.08184 13.385 8.02 13.3808 7.94922C13.2491 5.67822 13.1159 3.39419 12.9824 1.09375C12.9784 1.0213 13.0368 0.959978 13.1094 0.959961C15.7162 0.95943 18.4658 0.958382 21.0771 0.957031ZM12.4219 0.000976562C12.5208 0.000979636 12.5987 0.0847821 12.5937 0.183594C12.4586 2.77973 12.3243 5.36796 12.1904 7.94043C12.1868 8.0096 12.1421 8.0697 12.0771 8.09375C11.8606 8.17312 11.653 8.25028 11.4433 8.31934C11.4148 8.32874 11.3569 8.2877 11.3291 8.25586C10.8795 7.74153 10.4311 7.22574 9.98534 6.70801C9.01029 5.57541 8.03659 4.44102 7.06249 3.30762C7.05947 3.30412 7.05592 3.30037 7.05272 3.29688C7.03046 3.27283 6.9941 3.26897 6.96679 3.28711C6.93677 3.30722 6.92749 3.34808 6.94628 3.37891C8.08899 5.23525 9.22926 7.08821 10.3652 8.93359C10.402 8.99365 10.3983 9.0703 10.3564 9.12695C10.2517 9.26833 10.1475 9.40893 10.0381 9.55664C9.99596 9.61334 9.92379 9.63901 9.85546 9.62109C7.67022 9.04626 5.46534 8.46598 3.25585 7.88477C3.15982 7.85935 3.10496 7.75855 3.13573 7.66406C3.44146 6.72517 3.74352 5.79823 4.04394 4.87109C4.50129 3.45964 5.38303 0.718843 5.57616 0.118164C5.59923 0.0468758 5.66432 0.000120317 5.73925 0C6.48288 0.000217402 10.3531 0.000912194 12.4219 0.000976562ZM76.6523 5.58105C76.9768 5.58105 77.2536 5.69062 77.4824 5.90918C77.7145 6.12429 77.831 6.38219 77.831 6.68262C77.831 6.98636 77.7144 7.24736 77.4824 7.46582C77.2536 7.68097 76.9768 7.78906 76.6523 7.78906C76.328 7.78904 76.0496 7.68094 75.8174 7.46582C75.5888 7.24736 75.4747 6.98636 75.4746 6.68262C75.4746 6.38218 75.5887 6.12429 75.8174 5.90918C76.0496 5.69064 76.328 5.58108 76.6523 5.58105Z" fill="white"/>
</svg>
