<svg width="566" height="574" viewBox="0 0 566 574" fill="none" xmlns="http://www.w3.org/2000/svg">
<path d="M100.361 111.94C106.842 111.12 114.315 112.271 120.434 114.414C128.598 117.332 135.824 122.448 141.338 129.215C146.849 136.057 152.072 148.875 155.947 157.243L173.209 194.372C188.533 184.758 207.513 182.936 222.975 193.332C230.374 187.164 237.415 182.853 246.936 181.028C265.468 177.477 281.076 184.055 292.857 198.492C311.69 185.842 334.832 186.98 351.613 202.628C355.491 206.287 358.774 210.546 361.336 215.247C364.278 220.546 368.001 229.422 370.706 235.224L389.609 275.74L407.211 313.472C411.387 322.419 416.16 331.926 419.26 341.23C423.523 354.172 425.952 367.662 426.473 381.298C427.974 418.738 414.708 455.245 389.607 482.741C363.124 511.823 326.203 528.855 287.186 529.984C262.813 530.485 236.636 524.801 215.177 512.809C204.541 506.864 193.257 499.894 182.708 493.656L114.605 453.377L81.6802 433.929C75.2399 430.14 64.5734 424.356 59.3179 419.745C52.435 413.648 47.4618 405.644 45.0122 396.719C41.7445 384.492 43.3973 371.453 49.6079 360.463C55.8994 349.525 66.2728 341.624 78.3823 338.541C90.1588 335.527 102.607 336.836 113.525 342.23C117.654 344.229 122.84 347.478 126.905 349.86L146.46 361.302C139.956 346.335 132.175 330.459 125.238 315.559L87.4272 234.208L72.5679 202.244C67.7623 191.865 59.295 175.61 57.9653 164.986C56.4507 152.463 59.8826 139.84 67.5102 129.872C75.6992 119.263 87.3456 113.54 100.361 111.94ZM133.657 163.022C126.64 147.784 121.745 132.234 101.475 134.053C94.021 135.638 88.0894 138.964 83.8374 145.598C80.311 151.156 79.118 157.911 80.5229 164.364C81.3371 168.009 84.5106 174.011 86.1567 177.574L97.5747 202.249L155.472 326.745L169.707 357.33C171.774 361.769 176.367 370.816 177.354 375.067C178.27 379.108 177.56 383.351 175.382 386.857C173.214 390.408 169.699 392.894 165.666 393.732C157.793 395.302 151.302 390.243 144.704 386.349L119.938 371.835C107.561 364.559 95.3906 354.798 80.8569 361.312C76.5977 363.2 72.9282 366.233 70.2456 370.086C66.5572 375.532 65.1551 382.244 66.3481 388.739C67.5271 395.265 71.2063 401.05 76.5806 404.83C80.9781 407.916 88.888 412.057 93.7427 414.94L132.022 437.585L194.84 474.74C211.123 484.358 227.815 495.693 245.668 501.508C264.853 507.868 285.301 509.265 305.152 505.576C336.295 499.606 365.444 481.158 383.346 454.503C401.292 427.851 407.915 394.999 401.726 363.341C398.754 347.519 393.397 336.863 386.506 322.555C384.408 318.196 381.853 311.972 379.665 307.912L354.587 254.206L346.564 236.974C344.427 232.36 341.72 226.006 338.852 222.032C336.093 218.179 332.259 215.249 327.846 213.617C318.742 210.257 310.923 213.072 303.339 218.417C306.961 226.246 310.634 234.051 314.354 241.834C318.382 250.317 326.198 261.855 313.781 268.147C311.112 269.5 307.297 269.2 304.647 268.021C299.765 266.064 297.365 259.156 295.155 254.366L284.214 230.713C279.021 219.536 274.958 206.525 261.784 203.208C251.523 200.624 244.523 204.509 236.995 211.197L261.943 264.908L268.846 279.635C269.989 282.062 271.695 285.221 272.438 287.753C275.184 297.113 265.696 305.161 256.936 301.187C251.898 298.9 250.466 294.085 248.301 289.327C246.551 285.48 244.776 281.644 242.977 277.819L221.569 231.804C219.776 227.943 214.598 215.564 211.61 213.078C202.718 205.683 191.41 208.53 182.871 215.119L219.859 294.428L230.177 316.577C231.623 319.68 234.43 324.517 234.711 327.774C235.122 332.529 232.811 337.248 228.345 339.266C225.369 340.594 221.988 340.641 218.976 339.396C216.406 338.338 214.637 336.612 213.386 334.135C210.873 329.153 208.561 324.028 206.212 318.966L191.734 287.811L142.982 183.145L133.657 163.022Z" fill="white"/>
<path d="M267.734 34.9159C278.598 34.425 289.484 34.7482 300.302 35.8837C364.901 42.6235 420.971 78.3582 461.445 128.877C459.638 113.626 456.372 98.193 454.314 82.9433C453.771 78.9218 453.567 75.856 456.14 72.412C461.664 65.0248 473.3 67.2548 475.338 76.2841C476.457 81.2613 477.108 86.3933 477.913 91.456L482.584 121.028L487.652 153.393C488.593 159.4 489.62 165.543 490.258 171.415C490.872 177.044 485.079 183.717 479.76 183.562C474.6 183.412 467.951 182.136 462.774 181.358L430.858 176.526L395.703 171.267C388.998 170.298 381.88 169.474 375.262 168.109C369.583 166.939 367.152 161.544 367.269 155.965C368.519 150.911 372.154 146.359 377.533 146.508C383.785 146.7 390.092 148.217 396.317 149.026C411.668 151.02 427.123 154.136 442.476 155.972C433.623 149.926 425.569 144.462 416.198 139.216C362.998 109.434 310.241 99.8039 251.062 114.496C242.821 116.558 234.703 119.095 226.747 122.094C217.968 125.402 209.123 130.37 199.867 131.033C189.785 131.756 178.824 127.651 171.256 120.94C163.455 114.093 158.694 104.353 158.045 93.9101C157.357 83.3213 160.561 72.7725 167.562 64.8046C170.115 61.8586 173.123 59.3527 176.468 57.3847C180.543 55.0026 186.766 52.6675 191.261 51.0077C208.334 44.6921 225.975 40.0834 243.932 37.248C252.152 35.9721 259.466 35.3911 267.734 34.9159ZM275.964 56.7529C250.499 57.4099 226.061 62.097 202.014 70.6572C191.478 74.4077 179.69 77.0787 180.026 91.3964C180.148 96.0494 182.072 100.467 185.382 103.691C195.046 113.015 204.12 106.994 214.226 103.118C218.977 101.34 223.754 99.6373 228.557 98.0097C259.874 87.4699 292.996 83.5902 325.859 86.6132C349.833 89.1879 373.322 95.2307 395.61 104.557C403.39 107.747 410.532 111.313 418.122 114.645C409.618 107.1 402.468 100.957 393.119 94.3388C358.872 69.7597 317.92 56.6214 275.964 56.7529Z" fill="white"/>
</svg>
