<svg width="944" height="1124" viewBox="0 0 944 1124" fill="none" xmlns="http://www.w3.org/2000/svg">
<path d="M361.248 223.96C388.378 223.741 411.559 238.517 423.513 262.842C432.612 281.358 430.71 300.295 430.702 320.285L430.713 366.104C438.017 362.478 445.068 360.274 453.202 359.382C470.56 357.351 487.993 362.502 501.46 373.64C517.527 386.731 525.566 403.337 527.751 423.687C567.816 407.055 609.05 423.919 622.425 465.892C670.992 439.965 722.791 474.74 723.307 527.899L723.285 801.415L723.275 880.995C723.297 896.176 723.993 913.157 722.242 928.074C720.568 938.93 714.526 949.011 707.072 956.733C691.068 973.308 673.473 971.969 652.414 971.964L611.536 971.936L458.554 971.941L382.669 971.969C373.058 971.969 363.296 971.958 353.701 971.969C341.396 971.985 334.915 970.509 328.236 959.62C314.479 937.195 301.064 914.633 287.518 892.109L212.735 767.991L175.576 706.161C159.116 678.917 139.641 653.468 147.423 619.605C150.982 603.788 160.811 590.095 174.657 581.659C189.429 572.735 207.173 570.128 223.886 574.436C261.156 583.871 276.228 618.074 294.29 648.66C294.712 638.622 294.41 626.619 294.414 616.405L294.426 557.4L294.447 379.501L294.409 319.392C294.393 307.506 293.55 292.857 295.402 281.368C300.505 249.702 326.478 227.033 357.677 224.148C358.864 224.027 360.056 223.963 361.248 223.96ZM361.155 261.981C352.607 263.021 346.036 265.979 340.606 272.939C336.655 278.071 334.237 284.217 333.634 290.666C332.683 299.951 333.343 318.601 333.353 328.589L333.359 402.331L333.362 644.17L333.375 691.863C333.388 707.96 337.943 732.608 316.256 735.638C310.91 736.411 305.473 735.078 301.096 731.911C295.631 727.894 291.68 718.899 288.004 712.928C277.617 696.183 267.402 679.334 257.36 662.375C249.786 649.769 242.746 637.272 234.086 624.813C222.939 608.777 196.682 604.182 186.551 623.819C181.063 634.461 185.854 647.15 191.445 656.568C198.224 668.368 205.278 679.784 212.239 691.375L250 754.193L317.555 866.391C330.935 888.662 344.833 911.137 357.953 933.523L572.174 933.507L638.265 933.545C649.269 933.55 660.531 933.749 671.525 933.282C674.971 933.134 678.49 931.196 680.789 928.743C683.66 926.016 684.109 922.646 684.367 918.678C684.79 912.042 684.614 904.666 684.609 897.932L684.571 861.775L684.543 743.936L684.565 590.215L684.587 546.495C684.587 530.833 687.018 515.83 675.147 503.745C658.627 486.926 631.674 496.945 626.723 518.914C624.961 527.02 625.625 536.585 625.636 544.915L625.751 580.084C625.784 586.022 626.306 592.997 624.764 598.678C619.462 618.216 591.043 617.316 587.333 597.245C586 590.023 586.647 580.484 586.669 572.998L586.812 520.095C586.839 508.224 588.2 487.788 585.067 476.77C576.664 447.219 535.095 448.845 529.226 479.29C527.177 490.413 528.117 503.772 528.128 515.231L528.197 575.847C528.211 586.335 529.97 600.061 522.262 607.668C518.535 611.334 513.481 613.331 508.256 613.205C503.068 613.145 498.129 610.971 494.588 607.179C486.581 598.491 489.232 576.78 489.24 564.975L489.275 483.846C489.279 469.627 490.919 428.198 487.221 417.619C483.426 406.763 473.686 398.214 461.974 397.428C454.442 396.922 446.836 399.726 441.202 404.694C433.822 411.203 431.222 419.27 430.762 428.894C430.095 442.83 430.641 457.053 430.646 471.013L430.628 555.161C430.59 563.229 430.618 571.302 430.712 579.37C430.754 584.836 431.122 590.78 430.307 596.109C426.826 618.886 392.891 616.493 391.941 593.7C391.546 584.244 391.706 574.952 391.72 565.567L391.732 515.449L391.748 350.78C391.75 335.883 393.498 293.014 389.539 281.543C386.251 272.014 376.424 263.584 366.357 262.292C364.655 262.074 362.869 261.964 361.155 261.981Z" fill="white"/>
<path d="M353.363 123.719C367.83 122.023 390.292 125.103 404.315 129.079C444.173 140.228 477.992 166.71 498.37 202.733C513.687 230.337 520.424 261.88 517.721 293.332C516.804 304.476 516.36 319.332 505.065 325.118C500.567 327.381 495.349 327.741 490.583 326.116C484.201 324.013 479.369 318.746 477.822 312.206C476.231 305.489 478.801 296.357 479.39 289.271C481.213 267.322 476.674 245.258 466.766 225.701C452.395 197.82 427.541 176.785 397.667 167.22C367.255 157.38 336.996 161.134 308.915 175.519C292.637 184.542 278.955 195.932 267.804 210.924C242.551 245.296 238.377 290.815 256.958 329.206C260.873 337.163 265.465 343.98 270.008 351.423C277.42 363.565 268.339 378.829 254.968 380.377C241.915 381.888 234.841 368.713 229.34 359.614C216.603 338.545 209.508 315.875 207.326 291.431C203.994 251.013 216.782 210.917 242.901 179.892C271.326 146.007 309.61 127.495 353.363 123.719Z" fill="white"/>
</svg>
